<svg width="24" height="24" viewBox="0 0 24 24" fill="none" xmlns="http://www.w3.org/2000/svg">
<path d="M12.7154 8.33002L15.0833 5.96216C15.2813 5.76415 15.3803 5.66514 15.4945 5.62805C15.5949 5.59542 15.7031 5.59542 15.8035 5.62805C15.9176 5.66514 16.0166 5.76415 16.2147 5.96216L18.0378 7.78533C18.2358 7.98334 18.3348 8.08234 18.3719 8.19651C18.4046 8.29693 18.4046 8.4051 18.3719 8.50552C18.3348 8.61969 18.2358 8.71869 18.0378 8.9167L15.67 11.2846M12.7154 8.33002L5.83783 15.2076C5.75136 15.2941 5.70812 15.3373 5.6772 15.3878C5.64978 15.4325 5.62958 15.4813 5.61733 15.5323C5.60352 15.5899 5.60352 15.651 5.60352 15.7733V17.5965C5.60352 17.8765 5.60352 18.0165 5.65801 18.1235C5.70595 18.2175 5.78244 18.294 5.87652 18.342C5.98348 18.3965 6.12349 18.3965 6.40352 18.3965H8.22669C8.34899 18.3965 8.41013 18.3965 8.46768 18.3827C8.51869 18.3704 8.56747 18.3502 8.6122 18.3228C8.66266 18.2919 8.7059 18.2486 8.79238 18.1622L15.67 11.2846M12.7154 8.33002L15.67 11.2846" stroke="#A1A1A1" stroke-width="2" stroke-linecap="round"/>
</svg>
