<svg width="24" height="24" viewBox="0 0 24 24" fill="none" xmlns="http://www.w3.org/2000/svg">
<path d="M4 9V7C4 5.89543 4.89543 5 6 5H18C19.1046 5 20 5.89543 20 7V9M4 9V19C4 20.1046 4.89543 21 6 21H18C19.1046 21 20 20.1046 20 19V9M4 9H20M7 3V5M17 3V5M8.39343 14V16C8.39343 16.5523 8.84115 17 9.39343 17H11.3934C11.9457 17 12.3934 16.5523 12.3934 16V14C12.3934 13.4477 11.9457 13 11.3934 13H9.39343C8.84115 13 8.39343 13.4477 8.39343 14Z" stroke="#A1A1A1" stroke-width="2" stroke-linecap="round"/>
</svg>
