<svg width="24" height="24" viewBox="0 0 24 24" fill="none" xmlns="http://www.w3.org/2000/svg">
<path d="M4 11.35V16.75C4 17.6819 4 18.1478 4.15224 18.5154C4.35523 19.0054 4.74458 19.3948 5.23463 19.5978C5.60218 19.75 6.06812 19.75 7 19.75C7.93188 19.75 8.39782 19.75 8.76537 19.5978C9.25542 19.3948 9.64477 19.0054 9.84776 18.5154C10 18.1478 10 17.6819 10 16.75V15.75C10 14.6454 10.8954 13.75 12 13.75C13.1046 13.75 14 14.6454 14 15.75V16.75C14 17.6819 14 18.1478 14.1522 18.5154C14.3552 19.0054 14.7446 19.3948 15.2346 19.5978C15.6022 19.75 16.0681 19.75 17 19.75C17.9319 19.75 18.3978 19.75 18.7654 19.5978C19.2554 19.3948 19.6448 19.0054 19.8478 18.5154C20 18.1478 20 17.6819 20 16.75V11.35C20 10.7633 20 10.47 19.9231 10.2008C19.855 9.96232 19.7432 9.7386 19.5932 9.54105C19.424 9.318 19.1893 9.142 18.72 8.79L13.92 5.19C13.2315 4.67361 12.8872 4.41542 12.5091 4.31589C12.1754 4.22804 11.8246 4.22804 11.4909 4.31589C11.1128 4.41542 10.7685 4.67361 10.08 5.19L5.28 8.79C4.81067 9.142 4.576 9.318 4.40675 9.54105C4.25685 9.7386 4.14499 9.96232 4.07689 10.2008C4 10.47 4 10.7633 4 11.35Z" stroke="#A1A1A1" stroke-width="2"/>
</svg>
