<svg width="70" height="30" viewBox="0 0 70 30" fill="none" xmlns="http://www.w3.org/2000/svg">
<g clip-path="url(#clip0_1145_682)">
<path d="M22.0938 18.2344C18 18.2344 15.9531 15.4219 15.9531 9.79688C15.9531 4.01562 18 1.125 22.0938 1.125C26.1875 1.125 28.2344 4.01562 28.2344 9.79688C28.2344 15.4219 26.1875 18.2344 22.0938 18.2344ZM22.0938 16.0781C24.5156 16.0781 25.7266 13.9844 25.7266 9.79688C25.7266 5.45312 24.5156 3.28125 22.0938 3.28125C19.6719 3.28125 18.4609 5.45312 18.4609 9.79688C18.4609 13.9844 19.6719 16.0781 22.0938 16.0781Z" fill="white"/>
<path d="M4.91406 11.6719V9.44531H8.35938C9.28906 9.44531 10.0117 9.19922 10.5273 8.70703C11.0508 8.21484 11.3125 7.52344 11.3125 6.63281C11.3125 5.65625 11.0508 4.90625 10.5273 4.38281C10.0117 3.85156 9.28906 3.58594 8.35938 3.58594H4.96094L4.67969 1.35938H8.35938C10.0859 1.35938 11.418 1.79688 12.3555 2.67188C13.3008 3.54688 13.7734 4.78906 13.7734 6.39844C13.7734 8.07031 13.3008 9.36719 12.3555 10.2891C11.418 11.2109 10.0859 11.6719 8.35938 11.6719H4.91406ZM2.64062 18V1.35938H5.07812V18H2.64062ZM11.5703 18L7.84375 10.1719H10.4219L14.3828 18H11.5703Z" fill="white"/>
<path d="M23.3359 28L20.375 19.7188H22.1406L24.3672 26.5938H24.5078L26.7344 19.7188H28.5L25.5391 28H23.3359Z" fill="white"/>
<path d="M15.7812 28.1562C14.3698 28.1562 13.2786 27.7865 12.5078 27.0469C11.7422 26.3021 11.3594 25.2344 11.3594 23.8438C11.3594 22.4896 11.6849 21.4375 12.3359 20.6875C12.987 19.9375 13.9062 19.5625 15.0938 19.5625C16.2135 19.5625 17.0781 19.901 17.6875 20.5781C18.3021 21.2552 18.6094 22.2396 18.6094 23.5312C18.6094 23.9115 18.5938 24.2656 18.5625 24.5938H12.75V23.3281H17.1094C17.1094 22.5833 16.9323 22.013 16.5781 21.6172C16.224 21.2161 15.7344 21.0156 15.1094 21.0156C14.4062 21.0156 13.8594 21.2552 13.4688 21.7344C13.0833 22.2135 12.8906 22.8906 12.8906 23.7656C12.8906 24.724 13.1562 25.4531 13.6875 25.9531C14.224 26.4531 14.9844 26.7031 15.9688 26.7031C16.3125 26.7031 16.651 26.6849 16.9844 26.6484C17.3177 26.6068 17.6562 26.5521 18 26.4844L18.2031 27.9375C17.7135 28.0312 17.2656 28.0911 16.8594 28.1172C16.4531 28.1432 16.0938 28.1562 15.7812 28.1562Z" fill="white"/>
<path d="M5.05469 28.1562C3.97135 28.1562 3.14844 27.7995 2.58594 27.0859C2.02865 26.3724 1.75 25.3229 1.75 23.9375C1.75 22.5 2.02865 21.4115 2.58594 20.6719C3.14844 19.9323 3.97135 19.5625 5.05469 19.5625C5.67448 19.5625 6.17708 19.7083 6.5625 20C6.95312 20.2917 7.18229 20.6979 7.25 21.2188H7.89062L7.40625 23.5781C7.40625 22.724 7.23698 22.0755 6.89844 21.6328C6.5651 21.1901 6.07292 20.9688 5.42188 20.9688C4.75521 20.9688 4.25 21.2188 3.90625 21.7188C3.5625 22.2188 3.39062 22.9583 3.39062 23.9375C3.39062 24.8646 3.5625 25.5651 3.90625 26.0391C4.25 26.513 4.75521 26.75 5.42188 26.75C6.07292 26.75 6.5651 26.5286 6.89844 26.0859C7.23698 25.6432 7.40625 24.9948 7.40625 24.1406L7.96875 26.5H7.25C7.19792 27.0208 6.97656 27.4271 6.58594 27.7188C6.20052 28.0104 5.6901 28.1562 5.05469 28.1562ZM7.57812 28.0781L7.40625 26.4531V16.2812H9.0625V28L7.57812 28.0781Z" fill="white"/>
<path d="M65.8594 19.2969C65.2344 19.2969 64.6979 19.2786 64.25 19.2422C63.8073 19.2057 63.401 19.1458 63.0312 19.0625L63.2188 17.5625C63.7656 17.6458 64.2474 17.7083 64.6641 17.75C65.0859 17.7917 65.4844 17.8125 65.8594 17.8125C66.6979 17.8125 67.3047 17.7318 67.6797 17.5703C68.0599 17.4036 68.25 17.1406 68.25 16.7812C68.25 16.5312 68.1823 16.3464 68.0469 16.2266C67.9167 16.1016 67.7135 16.0052 67.4375 15.9375L65.5312 15.4531C64.7135 15.2448 64.112 14.987 63.7266 14.6797C63.3464 14.3724 63.1562 13.9062 63.1562 13.2812C63.1562 12.375 63.5026 11.7188 64.1953 11.3125C64.8932 10.9062 66.0156 10.7031 67.5625 10.7031C67.9635 10.7031 68.3359 10.7161 68.6797 10.7422C69.0286 10.763 69.3854 10.8021 69.75 10.8594L69.5781 12.2969C69.1562 12.2552 68.7839 12.2266 68.4609 12.2109C68.138 12.1953 67.8229 12.1875 67.5156 12.1875C66.5885 12.1875 65.9167 12.2682 65.5 12.4297C65.0833 12.5859 64.875 12.8438 64.875 13.2031C64.875 13.4427 64.9609 13.6172 65.1328 13.7266C65.3047 13.8307 65.5677 13.9271 65.9219 14.0156L67.4531 14.3906C68.3229 14.599 68.9583 14.8776 69.3594 15.2266C69.7656 15.5755 69.9688 16.0833 69.9688 16.75C69.9688 17.6406 69.6432 18.2891 68.9922 18.6953C68.3411 19.0964 67.2969 19.2969 65.8594 19.2969Z" fill="white"/>
<path d="M58.0625 19.1406L57.0938 12.5625H56.9688L56.2891 10.8594H57.8047L58.7812 17.8906H58.9219L59.625 10.8594H61.2656L60.0938 19.1406H58.0625ZM53.9219 19.1406L52.9844 10.8594H54.5469L55.1719 17.8906H55.3125L56.2891 10.8594H57.8047L57.1094 12.5625H57L56.0312 19.1406H53.9219Z" fill="white"/>
<path d="M48.4688 19.2969C47.0573 19.2969 45.9661 18.9271 45.1953 18.1875C44.4297 17.4427 44.0469 16.375 44.0469 14.9844C44.0469 13.6302 44.3724 12.5781 45.0234 11.8281C45.6745 11.0781 46.5938 10.7031 47.7812 10.7031C48.901 10.7031 49.7656 11.0417 50.375 11.7188C50.9896 12.3958 51.2969 13.3802 51.2969 14.6719C51.2969 15.0521 51.2812 15.4062 51.25 15.7344H45.4375V14.4688H49.7969C49.7969 13.724 49.6198 13.1536 49.2656 12.7578C48.9115 12.3568 48.4219 12.1562 47.7969 12.1562C47.0938 12.1562 46.5469 12.3958 46.1562 12.875C45.7708 13.3542 45.5781 14.0312 45.5781 14.9062C45.5781 15.8646 45.8438 16.5938 46.375 17.0938C46.9115 17.5938 47.6719 17.8438 48.6562 17.8438C49 17.8438 49.3385 17.8255 49.6719 17.7891C50.0052 17.7474 50.3438 17.6927 50.6875 17.625L50.8906 19.0781C50.401 19.1719 49.9531 19.2318 49.5469 19.2578C49.1406 19.2839 48.7812 19.2969 48.4688 19.2969Z" fill="white"/>
<path d="M40.0938 19.1406V13.75C40.0938 13.25 39.9635 12.8646 39.7031 12.5938C39.4427 12.3229 39.0781 12.1875 38.6094 12.1875C37.3073 12.1875 36.6562 12.9531 36.6562 14.4844L36.1719 12.3594H36.8125C36.8594 11.8021 37.0625 11.388 37.4219 11.1172C37.7812 10.8411 38.3073 10.7031 39 10.7031C39.875 10.7031 40.5521 10.9688 41.0312 11.5C41.5104 12.0312 41.75 12.7812 41.75 13.75V19.1406H40.0938ZM35 19.1406V10.8594H36.5L36.6562 12.6094V19.1406H35Z" fill="white"/>
</g>
<defs>
<clipPath id="clip0_1145_682">
<rect width="69.9688" height="30" fill="white"/>
</clipPath>
</defs>
</svg>
