<svg width="24" height="24" viewBox="0 0 24 24" fill="none" xmlns="http://www.w3.org/2000/svg">
<path d="M10.8453 3.31357C11.5598 2.89548 12.4402 2.89548 13.1547 3.31357L18.8453 6.64331C19.5598 7.0614 20 7.83407 20 8.67026V15.3297C20 16.1659 19.5598 16.9386 18.8453 17.3567L13.1547 20.6864C12.4402 21.1045 11.5598 21.1045 10.8453 20.6864L5.1547 17.3567C4.44017 16.9386 4 16.1659 4 15.3297V8.67026C4 7.83407 4.44017 7.0614 5.1547 6.64331L10.8453 3.31357Z" stroke="#A1A1A1" stroke-width="2"/>
<path d="M15 12C15 13.6569 13.6569 15 12 15C10.3431 15 9 13.6569 9 12C9 10.3431 10.3431 9 12 9C13.6569 9 15 10.3431 15 12Z" stroke="#A1A1A1" stroke-width="2"/>
</svg>
