<svg width="24" height="24" viewBox="0 0 24 24" fill="none" xmlns="http://www.w3.org/2000/svg">
<path d="M14 18H19C20.1046 18 21 17.1046 21 16V15.5C21 15.2239 20.7745 15.0044 20.5021 14.9589C19.0822 14.7217 18 13.4872 18 12C18 10.5128 19.0822 9.2783 20.5021 9.04113C20.7745 8.99563 21 8.77614 21 8.5V8C21 6.89543 20.1046 6 19 6H14M14 18H5C3.89543 18 3 17.1046 3 16V15.5C3 15.2239 3.22554 15.0044 3.49791 14.9589C4.91779 14.7217 6 13.4872 6 12C6 10.5128 4.91779 9.2783 3.49791 9.04113C3.22554 8.99563 3 8.77614 3 8.5V8C3 6.89543 3.89543 6 5 6H14M14 18V6" stroke="#A1A1A1" stroke-width="2"/>
</svg>
